<svg xmlns="http://www.w3.org/2000/svg" viewBox="0 0 361.35 74.98"><path d="M68.5 9.51L55.6.8C43.68 15.66 17.55 30.21 0 34a52 52 0 0 1 10.37 12c6.64-2.3 11.57-4.6 21.36-9.46v30.57a6.53 6.53 0 0 0 2 5.12A7.85 7.85 0 0 0 38.88 74a7.58 7.58 0 0 0 5.31-1.64 6.26 6.26 0 0 0 2.34-5.22V27.79L49 26.31c11.35-8 15.19-12.15 17.31-14.48 1.31.15 3.1.23 3.1-1.12-.02-.45-.26-.71-.91-1.2zM143.4 61.06c0-3.39-2.22-6.17-5-6.43v-.05h-27.23V26.49H132c2.92-.16 5.25-3.05 5.25-6.61s-2.33-6.45-5.25-6.6H74.27v13.21h20.9v28.09H67.9v12.94h70.46c2.82-.29 5.04-3.07 5.04-6.46zM282.71 30.75h-59.32V44h59.32c3 0 5.49-3 5.49-6.62s-2.46-6.63-5.49-6.63zM314 20.67L299.25 9.24v25c0 1.93-.16 10.56-3.43 16.41a39.2 39.2 0 0 1-11.94 12.56h-.06c-2.12 2.06-1.74 5.88.84 8.54s6.39 3.13 8.51 1.06c11-8.7 21-21.8 21-38.07V20.67zM354 32.84c-4.78 6.35-11.95 14-19 18.55V20.67h-14.81v41.21a33.35 33.35 0 0 1-.4 4.49c-.85 1.73-.56 4.77 2.73 6.69 2.68 1.55 5.84 1.09 7.19-1a55.46 55.46 0 0 1 4.3-3.57c7-4.85 19.75-13.62 27.31-24A43.09 43.09 0 0 1 354 32.84zM334.57 8.24A7.59 7.59 0 1 1 327 .65a7.59 7.59 0 0 1 7.57 7.59zM204.71 19.51h-53.87a6.3 6.3 0 0 0-4.46 1.76 5.43 5.43 0 0 0-2 4v15.45a5.12 5.12 0 0 0 2.32 4.48 6.86 6.86 0 0 0 5 1.28q5.72-.63 5.71-5.76V33.2c0-1.82.68-2.72 2.05-2.72h43.08a1.11 1.11 0 0 1 .8 1.2v.8q-2 10.8-13.11 19.93a55.42 55.42 0 0 1-22.12 11.12q-4.81 1.13-4.81 5.45A5.44 5.44 0 0 0 165 73a5.84 5.84 0 0 0 4.55 2 6.38 6.38 0 0 0 2-.32A68.69 68.69 0 0 0 200.7 60q16.05-13.36 16.05-30.66 0-9.83-12.04-9.83zM188.18 7.59a7.6 7.6 0 1 1-7.6-7.59 7.59 7.59 0 0 1 7.6 7.59z" fill="#bf3835"/></svg>