<svg xmlns="http://www.w3.org/2000/svg" width="168.83" height="31.525" viewBox="0 0 168.83 31.525"><path d="M105.167,7.3l-4.947-3.337C95.648,9.662,85.646,15.246,78.9,16.684a19.758,19.758,0,0,1,3.973,4.633,64.419,64.419,0,0,0,8.192-3.632V29.4a2.5,2.5,0,0,0,.767,1.964,3,3,0,0,0,1.956.667,2.907,2.907,0,0,0,2.056-.625,2.393,2.393,0,0,0,.9-2V14.314l.94-.552a36.354,36.354,0,0,0,6.635-5.553c.5.058,1.193.084,1.193-.433C105.512,7.591,105.4,7.476,105.167,7.3ZM133.9,27.077a2.351,2.351,0,0,0-1.937-2.47v-.019H121.535V13.819h7.981a2.361,2.361,0,0,0,2.013-2.531,2.367,2.367,0,0,0-2.013-2.535H107.383v5.066h8.012V24.588H104.94v4.986h27.018a2.406,2.406,0,0,0,1.937-2.5Zm53.423-11.624H164.573v5.062h22.746a2.37,2.37,0,0,0,2.105-2.539,2.347,2.347,0,0,0-2.105-2.524Zm-2.044,9.365a1.465,1.465,0,0,0-.537-.679,1.431,1.431,0,0,0-.825-.242,1.212,1.212,0,0,0-.606.142,1.419,1.419,0,0,0-.437.414v-.472h-.56v5.036h.617V27.246a1.274,1.274,0,0,0,.4.33,1.174,1.174,0,0,0,.552.127,1.488,1.488,0,0,0,.805-.238,1.534,1.534,0,0,0,.571-.663,2.493,2.493,0,0,0,.2-1.009,2.436,2.436,0,0,0-.184-.974Zm-.74,2.033a.894.894,0,0,1-.706.345.871.871,0,0,1-.686-.334,1.58,1.58,0,0,1-.288-1.039,1.66,1.66,0,0,1,.3-1.07.886.886,0,0,1,.7-.384.874.874,0,0,1,.686.349,1.615,1.615,0,0,1,.284,1.039,1.664,1.664,0,0,1-.292,1.093Zm-16.675-2.869h.617v3.64h-.617Zm0-1.384h.617v.709h-.617Zm3.053,1.3a1.607,1.607,0,0,0-1.227.51,2.013,2.013,0,0,0-.472,1.427,1.918,1.918,0,0,0,.468,1.377,1.653,1.653,0,0,0,1.266.491,1.676,1.676,0,0,0,1.043-.307,1.534,1.534,0,0,0,.556-.867l-.637-.081a1.17,1.17,0,0,1-.384.571.943.943,0,0,1-.579.176,1.009,1.009,0,0,1-.767-.318,1.392,1.392,0,0,1-.337-.917h2.715V25.8a1.983,1.983,0,0,0-.464-1.4,1.534,1.534,0,0,0-1.181-.5Zm-1.028,1.534a1.116,1.116,0,0,1,.318-.767.982.982,0,0,1,.717-.284.943.943,0,0,1,.767.357,1.2,1.2,0,0,1,.234.686Zm7.329-2.834h.617v5.028h-.617Zm1.749,4.322h.7v.7h-.7Zm1.772-4.322h.617v.717h-.617Zm0,5.208a1.3,1.3,0,0,1-.092.629.334.334,0,0,1-.28.123,1.269,1.269,0,0,1-.291-.046l-.119.522a1.707,1.707,0,0,0,.483.065.809.809,0,0,0,.74-.341,1.772,1.772,0,0,0,.176-.936V23.986h-.617Zm-4.878-1.833a1.917,1.917,0,0,1-.1.694.767.767,0,0,1-.337.384.986.986,0,0,1-.506.138.767.767,0,0,1-.456-.134.633.633,0,0,1-.242-.384,3.686,3.686,0,0,1-.035-.633V24.07h-.6v2.2a3.2,3.2,0,0,0,.035.56,1.193,1.193,0,0,0,.188.449.963.963,0,0,0,.384.3,1.446,1.446,0,0,0,.587.119,1.3,1.3,0,0,0,1.128-.6v.522h.537V24.07h-.6ZM193.662,7.2v9.588a14.605,14.605,0,0,1-1.312,6.293,15.049,15.049,0,0,1-4.6,4.813h-.019a2.357,2.357,0,0,0,.318,3.275,2.362,2.362,0,0,0,3.268.41c4.219-3.337,8.054-8.364,8.054-14.6V11.587h-.092Zm20.978,9.055a31.418,31.418,0,0,1-7.287,7.114V11.587h-5.661v15.8a12.939,12.939,0,0,1-.153,1.726,2,2,0,0,0,1.051,2.566,2.043,2.043,0,0,0,2.757-.384A20.409,20.409,0,0,1,207,29.931c2.685-1.86,7.571-5.227,10.474-9.2a16.663,16.663,0,0,1-2.83-4.472ZM204.3,9.731a2.911,2.911,0,1,0-2.061-.851,2.911,2.911,0,0,0,2.061.851Zm-46.892,1.411h-20.66a2.393,2.393,0,0,0-1.71.675,2.083,2.083,0,0,0-.767,1.534v5.925a1.975,1.975,0,0,0,.89,1.718,2.658,2.658,0,0,0,1.918.491c1.457-.165,2.19-.9,2.19-2.209V16.389c0-.694.261-1.043.767-1.043h16.522a.426.426,0,0,1,.307.46v.307q-.767,4.15-5.028,7.643a21.285,21.285,0,0,1-8.468,4.268,2.046,2.046,0,0,0-1.849,2.086,2.094,2.094,0,0,0,.652,1.534,2.232,2.232,0,0,0,1.741.767,2.47,2.47,0,0,0,.767-.123,26.351,26.351,0,0,0,11.183-5.618q6.159-5.124,6.163-11.758Q162.026,11.142,157.409,11.142Zm-9.254-1.661a2.911,2.911,0,1,0-2.911-2.911A2.911,2.911,0,0,0,148.155,9.482Z" transform="translate(-48.641 -2.256)" fill="#fff"/><path d="M25.557,19.041h.2c.384-.594,1.783-1.258,1.872-2-.146-.219,0-.441.065-.644a1.875,1.875,0,0,1,1.534-.2,1.335,1.335,0,0,1,.192.709.767.767,0,0,0-.13.322c-.2.127-.349.384-.579.453h-.384L26.708,19.6c-.384.384-.955.407-.966,1.151.211.345.035,1.055.127,1.484.2.874.077,1.918.261,2.777v1.223a2.757,2.757,0,0,1,.065,1.1c-.686.422-1.6.18-2.52.384-.571.13-1.457.13-2.063.261H20.2a21.755,21.755,0,0,1-4.453.257,5.177,5.177,0,0,0-.579,1.806c.522.226,1.02.744.767,1.358a1.089,1.089,0,0,1-.518.127c-.445-.326-1.028-.326-1.227-.9-.153-.257.656-1.841.767-2.259a1.894,1.894,0,0,0-.579-.065,14.42,14.42,0,0,1-3.291.065v.065h-.065c-.019.64-.384,1-.518,1.534a1.308,1.308,0,0,1,.709,1.151c-.13.123-.119.188-.322.261-.28.188-1.407-.407-1.484-.583v-.587a4.6,4.6,0,0,0,.966-1.741,2.792,2.792,0,0,0-.836-.065c-.384.23-.978,0-1.484.127a7.287,7.287,0,0,1-2.711.13c-.533-.111-.767.142-1.419,0a22.769,22.769,0,0,0-.2-3.034c-.084-.41.077-.8,0-1.151v-2.14c-.153-.713.054-1.68-.13-2.52a16.84,16.84,0,0,1-.192-3.095c-.92.035-2.685,1.174-3.291.836A.384.384,0,0,1,0,17.427,8.3,8.3,0,0,0,.71,15.555c.3-.667.8-1.323,1.1-2,.253-.571.334-1.108.583-1.676,1.062-2.4,2.6-4.5,3.613-6.842A21.477,21.477,0,0,1,7.92,1.292c.28-.4.322-.928.905-1.035A10.52,10.52,0,0,0,9.975.775c.426.222.84.579,1.292.767.84.361,1.615.537,2.454.905a10.669,10.669,0,0,0,2.259,1.032c-.027-.871-.606-1.676-.556-2.382A8.018,8.018,0,0,1,17.231.644C18.2.384,19.421.188,20.46,0c.6,2.217,1.239,4.437,1.806,6.777A9.759,9.759,0,0,1,24.334,8.13c1.1.7,2.355,1.151,3.356,1.937-.042.115,0,.065-.065.13-.307.361-.767.345-1.292.518-1.335.437-2.765.579-4.257.966-2.324.6-4.6,1.016-6.78,1.68-1.358.414-2.639.591-3.87,1.1v.065h.464c.5-.318,2.474-.284,3.225-.453.832-.188,2.14,0,3.034-.2h1.1c.817-.18,1.826-.111,2.711-.322a7.9,7.9,0,0,1,3.291-.192,1.2,1.2,0,0,1,.065.384c-.249.384-.027,1.009,0,1.484.084,1.269.173,2.539.257,3.808ZM19.038.905c-.219.134-.464.046-.767.127a9,9,0,0,0-1.937.583l.84,2.516c1.009.468,2.094,1.028,3.095,1.534.215.111,1.009.529,1.1.453a5.392,5.392,0,0,0-.272-1.407c-.253-.89-.495-1.918-.767-2.773-.115-.349-.065-.709-.257-.97V.905Zm-10.2.384A5.369,5.369,0,0,1,8.13,2.516c-.384.61-.617,1.277-.966,1.872-.736,1.266-1.289,2.65-1.918,3.939-.242.483-.311.959-.579,1.419-.644,1.093-1.151,2.24-1.745,3.421A14.957,14.957,0,0,0,1.534,16.2h.322L5.6,15.294c2.079-.767,4.468-1.465,6.646-2.128.725-.219,1.4-.18,2.132-.384,1.787-.51,3.643-.947,5.292-1.534a42.855,42.855,0,0,1,4.261-.966c.495-.127,1.45,0,1.676-.384h-.065a18.673,18.673,0,0,0-2.581-1.745c-.767-.479-1.488-1.074-2.259-1.534a15.528,15.528,0,0,0-2-.905c-1.622-.756-3.36-1.438-5.016-2.163-1.381-.61-3.233-2.121-4.84-2.259ZM24.2,14.393a10.147,10.147,0,0,0-2.324.322H21.3c-.882.2-2.006.257-2.842.453a2.842,2.842,0,0,1-.84-.065,8.1,8.1,0,0,0-1.676.192h-.709c-.9.2-2.071.127-2.972.326H11.122c-.629.138-1.569.119-2.2.257H7.874c-1.058.238-2.3.3-3.291.518v1.354c.311.5.107,1.756.257,2.451.092.426-.042,1.112.065,1.615a29.239,29.239,0,0,1,.192,5.68,1.243,1.243,0,0,0,.384.065c.242-.146.7,0,1.035-.065a6.313,6.313,0,0,1,2.063,0h3.164a31.063,31.063,0,0,0,6.136-.322h2.063a23.639,23.639,0,0,1,5.036-.518A.894.894,0,0,0,25.1,26.4c-.111-.184,0-.506-.061-.767a13.522,13.522,0,0,1-.13-2.646V21.945c-.123-.571-.077-1.388-.2-1.918V18.876c-.188-.871-.042-1.895-.257-2.838a12.241,12.241,0,0,1-.257-1.615Zm-2.581,4.453c1-.023,1.085.307,1.534.767.027.767-.115,1.243-.648,1.419-.744.6-1.381-.453-1.676-.767v-.579c.261-.272.518-.568.767-.84Zm-5.036.257a5.262,5.262,0,0,1,1.292.13,1.864,1.864,0,0,1,.449.966c-.464.594-.686,1.151-1.741,1.151-.146-.123-.384-.173-.518-.322a6.666,6.666,0,0,0-.384-.644v-.571c.219-.222.422-.426.648-.644.15,0,.18,0,.257-.065ZM7.939,21.17H8.2a.74.74,0,0,1,.13.453c-.384.215-1.791,1.2-1.872,1.611.414.261.648.767,1.032,1.035.226.169.476.219.709.384a.574.574,0,0,1,.261.579,1.479,1.479,0,0,1-1.358.709.767.767,0,0,0-.192-.127,1.983,1.983,0,0,1,0-.453c.192-.111.334-.188.384-.453a4.6,4.6,0,0,1-1.81-2c.617-.384,1.151-.943,1.745-1.354a7.824,7.824,0,0,0,.709-.384Zm9.615,1.289h.326c.215.41.042.644.192,1.151a1.721,1.721,0,0,0,1.872,1.227c.334-.276.656-.345.84-.767s.088-.909.453-1.1a.453.453,0,0,1,.257-.065,1.151,1.151,0,0,1,.13.648c-.487.767-.226,1.4-1.227,1.806a2.312,2.312,0,0,1-2.968-2.842c.111-.038.061,0,.127-.065Z" transform="translate(0)" fill="#fff" fill-rule="evenodd"/></svg>