<svg xmlns="http://www.w3.org/2000/svg" xmlns:xlink="http://www.w3.org/1999/xlink" width="44" height="44" viewBox="0 0 44 44">
  <defs>
    <clipPath id="clip-path">
      <circle id="楕円形_36" data-name="楕円形 36" cx="22" cy="22" r="22" transform="translate(658 2068)" fill="none" stroke="#707070" stroke-width="1"/>
    </clipPath>
  </defs>
  <g id="アイコン" transform="translate(-658 -2068)">
    <g id="マスクグループ_9" data-name="マスクグループ 9" clip-path="url(#clip-path)">
      <g id="グループ_126" data-name="グループ 126" transform="translate(641.828 2071.958)">
        <g id="グループ_125" data-name="グループ 125" transform="translate(19.054 0)">
          <g id="グループ_124" data-name="グループ 124" transform="translate(0)">
            <g id="グループ_123" data-name="グループ 123">
              <g id="グループ_121" data-name="グループ 121">
                <path id="パス_352" data-name="パス 352" d="M1336.979,645.813v4.637l3.04,3.993,3.335-3.8-.579-5.8Z" transform="translate(-1320.753 -627.074)" fill="#f38200"/>
                <path id="パス_353" data-name="パス 353" d="M1340.827,600.007a.481.481,0,0,0-.386.2v-2.033a4.347,4.347,0,0,0-8.693,0v2.082a.481.481,0,0,0-.417-.246h0a.483.483,0,0,0-.481.482V603.9a.483.483,0,0,0,.481.481h0a.481.481,0,0,0,.417-.246v3.884a4.347,4.347,0,1,0,8.693,0v-3.836a.48.48,0,0,0,.868-.284v-3.416A.483.483,0,0,0,1340.827,600.007Z" transform="translate(-1316.874 -591.314)" fill="#fca518"/>
                <path id="パス_354" data-name="パス 354" d="M1310.761,689.854l10.177-.227-3.288-20.667-13.2-5.227-3.335,3.089-3.04-3.246-11.118,4.954-3.886,13.377-1.222,7.947Z" transform="translate(-1281.846 -642.164)" fill="#daecfa"/>
                <path id="パス_355" data-name="パス 355" d="M1348.713,617.791l-1.117,5.216h1.886Z" transform="translate(-1329.567 -608.111)" fill="#f38200"/>
                <path id="パス_356" data-name="パス 356" d="M1336.41,590.258s-.389,1.122-2.189.966c-2.726-.236-4.894,3.144-4.894,3.144s-1.417-2.178-.966-3.273l.451-1.095-1.095-.773,1.481-.773-.322-1.159,2-.193.257-1.095,1.417.129.644-.708,2.9,1.095a3.909,3.909,0,0,1,3.735,4.057c.064,3.928-1.8,4.7-1.8,4.7S1337.376,590,1336.41,590.258Z" transform="translate(-1314.453 -585.429)" fill="#32190e"/>
                <path id="パス_357" data-name="パス 357" d="M1342.991,643.528s1.026.026,3.588,0c0,0,.16,1.7-1.964,1.7A1.578,1.578,0,0,1,1342.991,643.528Z" transform="translate(-1325.724 -626.287)" fill="#df1f1c"/>
              </g>
            </g>
          </g>
          <path id="パス_358" data-name="パス 358" d="M1309.562,730.71l-.815-13.106-.2,13.106Z" transform="translate(-1278.204 -685.346)" fill="#a6b8c7"/>
          <path id="パス_384" data-name="パス 384" d="M0,0,.815,13.106,1.629,0Z" transform="translate(6.629 43.948) rotate(-163)" fill="#a6b8c7"/>
        </g>
        <path id="パス_363" data-name="パス 363" d="M1352.819,670.151s-.972-1.033-1.4-.547a9.187,9.187,0,0,0-.729,2.734l-2.106-5.469,1.985,4.638S1350.814,667.559,1352.819,670.151Z" transform="translate(-1314.79 -644.693)" fill="#a6b8c7"/>
        <path id="パス_364" data-name="パス 364" d="M1332.959,670.795s.972-1.033,1.4-.547a9.172,9.172,0,0,1,.729,2.734l2.107-5.469-1.985,4.639S1334.965,668.2,1332.959,670.795Z" transform="translate(-1294.262 -645.144)" fill="#a6b8c7"/>
        <path id="パス_365" data-name="パス 365" d="M1345.386,686.262l.324,22.069.532-.015-.673-21.689Z" transform="translate(-1307.16 -661.106)" fill="#a6b8c7"/>
        <path id="パス_366" data-name="パス 366" d="M1318.417,702.067h5.15l-.182,5.925-2.233,1.094,1.914-1.413.228-5.241Z" transform="translate(-1274.949 -670.09)" fill="#a6b8c7"/>
      </g>
    </g>
    <g id="楕円形_37" data-name="楕円形 37" transform="translate(658 2068)" fill="none" stroke="#e5e5e5" stroke-width="1">
      <circle cx="22" cy="22" r="22" stroke="none"/>
      <circle cx="22" cy="22" r="21.5" fill="none"/>
    </g>
  </g>
</svg>
