<svg id="レイヤー_3" data-name="レイヤー 3" xmlns="http://www.w3.org/2000/svg" width="155.279mm" height="29.117mm" viewBox="0 0 440.16 82.536"><defs><style>.cls-1{fill:#120605;}.cls-2{fill:#fffabc;}.cls-3{fill:#eb6146;}.cls-4{fill:#b63833;}.cls-5{fill:#6e9bbf;}.cls-6{fill:#70aa76;}.cls-7{fill:#e4d188;}.cls-8{fill:#d0822a;}.cls-9{fill:#b93021;}.cls-10{fill:#2d6e9d;}.cls-11{fill:#7fa02f;}</style></defs><path class="cls-1" d="M234.957,293.449c8.814-1.443,17.847-.659,26.609-2.625,1.575-.353,3.149.091,4.728-.013.548-.037.853.224.775.967-.4,3.786.457,7.524.536,11.3.019.935.2,1.866.329,3.038a49.691,49.691,0,0,0,5.266-4.719.939.939,0,0,0,.209-.933c-.23-1.447.57-2.121,1.869-2.266.987-.109,2.2-.363,2.558.973a2.116,2.116,0,0,1-1.6,2.772,4.444,4.444,0,0,0-2.578,1.976,21.76,21.76,0,0,1-4.749,4.8,1.276,1.276,0,0,0-.591,1.41c.452,5.345.835,10.7,1.282,16.041.122,1.461-.476,2.019-1.908,2.12-6.31.446-12.613.981-18.921,1.44-1.735.126-3.482.154-5.222.122-1.175-.022-1.988.233-2.064,1.577a1.917,1.917,0,0,1-.208.642c-.654,1.461-1.313,2.845.707,3.916a1.5,1.5,0,0,1,.606,2.082c-.575.909-1.435.385-2.14.126-2.29-.84-2.682-1.852-1.659-4.082,1.836-4,1.837-3.987-2.486-3.889-1.75.04-3.5.045-5.253,0-.86-.023-1.379.191-1.541,1.122a4.882,4.882,0,0,1-.614,1.573,1.824,1.824,0,0,0,.445,2.757,1.557,1.557,0,0,1,.543,2.233c-.66.92-1.5.455-2.269.057-2.446-1.269-2.482-1.643-.972-4.066.638-1.025,1.693-2.349,1.208-3.326-.354-.713-2.087-.262-3.187-.1a118.269,118.269,0,0,1-12.146.758c-1.02.044-1.431-.31-1.469-1.457-.315-9.427-.711-18.852-1.083-28.277-.086-2.171-.065-2.089-2.183-1.5-2.249.628-4.3,2.015-6.972,1.867.77-1.944,1.4-3.8,2.222-5.562,4.188-8.948,8.216-17.971,13.093-26.586,2.11-3.726,3.5-7.835,5.994-11.38,1.392-1.975,1.593-2.219,3.741-.931,5.363,3.215,11.455,4.782,17.119,7.87a22.328,22.328,0,0,0-1.394-5.415c-.405-1.066-.131-1.577.984-1.777,3.5-.629,7-1.262,10.487-1.964,1.27-.256,1.745.152,2.033,1.41,1.158,5.046,2.892,9.952,3.744,15.075a2.258,2.258,0,0,0,1.223,1.515c3.988,2.676,8.2,4.971,12.323,7.428.383.229.84.352,1.052.828a4.963,4.963,0,0,1-2.344,1.172c-6.547,2.045-13.392,2.763-20.007,4.482-6.115,1.59-12.314,2.888-18.288,5a2.844,2.844,0,0,1-1.519.77c-.422.071-.063.19.482-.021a2.764,2.764,0,0,1,.924-.258A6.151,6.151,0,0,0,234.957,293.449Z" transform="translate(-200.817 -256.043)"/><path class="cls-2" d="M266.391,317.934c.107,2.2.17,4.4.342,6.6.072.917-.114,1.306-1.115,1.4-9.671.891-19.346,1.763-29.048,2.175-4.511.191-9.043.026-13.559-.138-2.611-.095-5.193.115-7.786.248-.7.036-1.139.024-1.136-.936.026-8.479-.625-16.921-1.293-25.369-.314-3.963-.753-3.131,3.111-3.779,6.081-1.021,12.258-1.156,18.393-1.676,9.447-.8,18.923-1.331,28.289-2.894,1.581-.264,2.011.2,2.191,1.727C265.667,302.815,266.18,310.363,266.391,317.934Z" transform="translate(-200.817 -256.043)"/><path class="cls-3" d="M204.621,298.821c.976-3.831,2.664-6.73,4.125-9.711,4.2-8.57,8.5-17.088,12.777-25.623.4-.807.856-1.592,1.3-2.38,1.3-2.311,1.349-2.423,3.864-1.329,2.271.988,4.409,2.281,6.625,3.4,4.844,2.45,9.845,4.54,14.9,6.514,6.374,2.491,11.933,6.374,17.472,10.287.816.576,1.6,1.2,2.528,1.9C246.757,286.475,225.946,292.906,204.621,298.821Z" transform="translate(-200.817 -256.043)"/><path class="cls-3" d="M257.19,272.28c-3.74-1.824-7.127-3.485-10.523-5.124a2.492,2.492,0,0,1-1.328-1.655c-.463-1.512-.9-3.038-1.459-4.514-.389-1.022-.06-1.417.915-1.659a41.3,41.3,0,0,1,7.661-1.353c.68-.038,1.185-.015,1.416.8C255.1,263.113,256.177,267.481,257.19,272.28Z" transform="translate(-200.817 -256.043)"/><path class="cls-1" d="M222.652,312.427c-.259.182-.588.393-.9.63-1.161.891-2.284,1.836-3.484,2.671-.731.508-.845.849-.167,1.529a19.057,19.057,0,0,0,3.671,3.21c1.607.948,1.584,1.736-.019,2.615a9.043,9.043,0,0,1-1.533.691.928.928,0,0,1-1.16-.448.764.764,0,0,1,.268-1.045c1.09-.762.408-1.156-.225-1.735-1.162-1.061-2.221-2.233-3.332-3.349-.52-.521-.707-1.075-.039-1.565,1.768-1.3,3.554-2.575,5.363-3.815C221.632,311.45,222.253,311.293,222.652,312.427Z" transform="translate(-200.817 -256.043)"/><path class="cls-1" d="M245.612,305.976c1.852,0,3.158,1.094,3.111,2.6-.043,1.4-2.052,3.1-3.726,3.149-1.32.038-2.971-1.728-2.963-3.17C242.042,307.084,243.587,305.971,245.612,305.976Z" transform="translate(-200.817 -256.043)"/><path class="cls-1" d="M261.615,308.41a2.929,2.929,0,0,1-2.816,2.821,2.95,2.95,0,1,1-.356-5.89A3.119,3.119,0,0,1,261.615,308.41Z" transform="translate(-200.817 -256.043)"/><path class="cls-1" d="M252.27,322.617a6.154,6.154,0,0,1-5.9-6.2c0-.7.038-1.5.946-1.5.888,0,.774.8.77,1.411a4.485,4.485,0,0,0,2.43,4.322,3.284,3.284,0,0,0,5.012-1.942c.252-.688.42-1.406.67-2.1a.64.64,0,0,1,.781-.482.791.791,0,0,1,.539.774A5.418,5.418,0,0,1,252.27,322.617Z" transform="translate(-200.817 -256.043)"/><path class="cls-4" d="M348.119,269.656l-12.9-8.7c-11.921,14.852-38.044,29.4-55.6,33.158a51.819,51.819,0,0,1,10.368,12.077c6.641-2.3,11.575-4.6,21.358-9.464v30.533a6.528,6.528,0,0,0,2.043,5.123,7.855,7.855,0,0,0,5.107,1.74,7.563,7.563,0,0,0,5.309-1.642,6.242,6.242,0,0,0,2.348-5.221V287.936l2.449-1.477c11.348-8.027,15.184-12.153,17.307-14.48,1.307.152,3.1.227,3.1-1.124C349.016,270.406,348.771,270.108,348.119,269.656Z" transform="translate(-200.817 -256.043)"/><path class="cls-4" d="M423.028,321.209c0-3.392-2.224-6.167-5.048-6.434v-.048H390.8V286.641h20.817v-.014c2.92-.154,5.25-3.048,5.25-6.605s-2.33-6.451-5.25-6.606V273.4H353.9v13.239h20.9v28.086H347.528v12.944H417.98v-.026C420.8,327.378,423.028,324.6,423.028,321.209Z" transform="translate(-200.817 -256.043)"/><path class="cls-4" d="M562.33,290.9v.038H503.017v13.165H562.33v.038c3.033,0,5.493-2.964,5.493-6.62S565.363,290.9,562.33,290.9Z" transform="translate(-200.817 -256.043)"/><path class="cls-5" d="M511.593,311.381V309.53H513.2v1.851Zm0,11.254v-9.493H513.2v9.493Z" transform="translate(-200.817 -256.043)"/><path class="cls-6" d="M522.15,319.578l1.662.2a4.057,4.057,0,0,1-1.457,2.263,4.943,4.943,0,0,1-6.021-.478,5.016,5.016,0,0,1-1.22-3.6,5.242,5.242,0,0,1,1.234-3.718,4.176,4.176,0,0,1,3.2-1.324,4.051,4.051,0,0,1,3.109,1.3,5.148,5.148,0,0,1,1.208,3.647c0,.1,0,.238-.009.429h-7.079a3.644,3.644,0,0,0,.885,2.4,2.632,2.632,0,0,0,1.983.831,2.462,2.462,0,0,0,1.511-.465A3.091,3.091,0,0,0,522.15,319.578Zm-5.284-2.6h5.3a3.212,3.212,0,0,0-.607-1.8,2.468,2.468,0,0,0-1.994-.928,2.557,2.557,0,0,0-1.864.741A2.942,2.942,0,0,0,516.866,316.977Z" transform="translate(-200.817 -256.043)"/><path class="cls-7" d="M535.977,322.635V309.53h1.61v13.105Z" transform="translate(-200.817 -256.043)"/><path class="cls-8" d="M540.537,322.635V320.8h1.832v1.832Z" transform="translate(-200.817 -256.043)"/><path class="cls-9" d="M543.121,326.317l.3-1.367a3.2,3.2,0,0,0,.76.125.85.85,0,0,0,.732-.326,3.317,3.317,0,0,0,.242-1.632v-9.975h1.61v10.012a4.693,4.693,0,0,1-.457,2.439,2.128,2.128,0,0,1-1.931.894A4.665,4.665,0,0,1,543.121,326.317Zm2.037-14.919V309.53h1.61V311.4Z" transform="translate(-200.817 -256.043)"/><path class="cls-10" d="M549.235,326.273V313.142H550.7v1.234a3.6,3.6,0,0,1,1.171-1.087,3.225,3.225,0,0,1,1.582-.362,3.759,3.759,0,0,1,2.147.626,3.843,3.843,0,0,1,1.4,1.766,6.851,6.851,0,0,1-.048,5.122,3.948,3.948,0,0,1-1.52,1.787,3.906,3.906,0,0,1-2.1.62,3.019,3.019,0,0,1-1.443-.338,3.269,3.269,0,0,1-1.05-.859v4.622Zm1.456-8.332a4.122,4.122,0,0,0,.743,2.709,2.272,2.272,0,0,0,1.8.876,2.33,2.33,0,0,0,1.838-.907,4.318,4.318,0,0,0,.762-2.811,4.2,4.2,0,0,0-.745-2.718,2.251,2.251,0,0,0-1.784-.9,2.314,2.314,0,0,0-1.818.961A4.29,4.29,0,0,0,550.691,317.941Z" transform="translate(-200.817 -256.043)"/><path class="cls-4" d="M593.6,280.821l-14.731-11.436v25.008c0,1.925-.158,10.558-3.423,16.407A39.2,39.2,0,0,1,563.5,323.356c.014.007.026.016.04.023l-.056-.023c-2.12,2.063-1.747,5.886.834,8.539s6.392,3.132,8.513,1.068c10.989-8.7,21.005-21.807,21.005-38.072v-14.07Z" transform="translate(-200.817 -256.043)"/><path class="cls-4" d="M633.572,292.993c-4.778,6.349-11.945,13.984-19.031,18.549V280.821h-14.73v41.206a33.631,33.631,0,0,1-.4,4.5l.007,0c-.847,1.738-.552,4.779,2.735,6.69,2.675,1.552,5.837,1.09,7.191-1l.019.011a54.7,54.7,0,0,1,4.3-3.566c7.009-4.85,19.748-13.625,27.313-24.039A43.235,43.235,0,0,1,633.572,292.993Z" transform="translate(-200.817 -256.043)"/><path class="cls-4" d="M614.2,268.394a7.592,7.592,0,1,1-7.591-7.592A7.591,7.591,0,0,1,614.2,268.394Z" transform="translate(-200.817 -256.043)"/><path class="cls-4" d="M484.334,279.659h-53.87a6.282,6.282,0,0,0-4.459,1.761,5.433,5.433,0,0,0-1.963,4v15.449a5.138,5.138,0,0,0,2.319,4.482,6.91,6.91,0,0,0,5,1.281q5.707-.641,5.708-5.763v-7.524q0-2.721,2.052-2.722h43.078a1.109,1.109,0,0,1,.8,1.2v.8q-1.962,10.808-13.111,19.933a55.472,55.472,0,0,1-22.119,11.126q-4.815,1.122-4.815,5.443a5.436,5.436,0,0,0,1.694,4,5.821,5.821,0,0,0,4.548,2,6.346,6.346,0,0,0,1.963-.321,68.727,68.727,0,0,0,29.165-14.648Q496.374,306.8,496.374,289.5,496.374,279.658,484.334,279.659Z" transform="translate(-200.817 -256.043)"/><path class="cls-4" d="M467.8,267.742a7.592,7.592,0,1,1-7.59-7.592A7.591,7.591,0,0,1,467.8,267.742Z" transform="translate(-200.817 -256.043)"/><path class="cls-11" d="M532.6,322.636v-1.361a3.39,3.39,0,0,1-2.939,1.57,3.75,3.75,0,0,1-1.53-.314,2.524,2.524,0,0,1-1.055-.789,2.969,2.969,0,0,1-.484-1.164,8.073,8.073,0,0,1-.1-1.465v-5.736h1.569v5.135a9.141,9.141,0,0,0,.1,1.656,1.634,1.634,0,0,0,.628.972,1.937,1.937,0,0,0,1.185.353,2.581,2.581,0,0,0,1.325-.361,2.02,2.02,0,0,0,.877-.985,4.959,4.959,0,0,0,.257-1.81v-4.96H534v9.259Z" transform="translate(-200.817 -256.043)"/></svg>